<svg id="Capa_1" data-name="Capa 1" xmlns="http://www.w3.org/2000/svg" viewBox="0 0 215.7 249.89"><defs><style>.cls-1{fill:#c49a6c;}.cls-2{fill:#b0875a;}.cls-3{fill:#6d6e71;}.cls-4{fill:#56585d;}.cls-5{fill:#fff;}.cls-6{fill:#e6e7e8;}.cls-7{fill:#bcbec0;}.cls-8{fill:#a2a7ac;}.cls-9{fill:#939598;}.cls-10{fill:#7b7e84;}.cls-11{fill:#808285;}.cls-12{fill:#686c71;}.cls-13{fill:#e91e63;}.cls-14{fill:#414042;}</style></defs><g id="_1" data-name="1"><path class="cls-1" d="M46.47,24.5A18.44,18.44,0,0,0,28,43V234.56A18.44,18.44,0,0,0,46.47,253h70.06V24.5Z" transform="translate(-28.03 -3.11)"/><path class="cls-2" d="M188.6,24.5H116.53V253H188.6A18.44,18.44,0,0,0,207,234.56V43A18.44,18.44,0,0,0,188.6,24.5Z" transform="translate(-28.03 -3.11)"/><rect class="cls-3" x="13.87" y="28.11" width="74.63" height="208.52"/><rect class="cls-4" x="88.5" y="28.11" width="76.64" height="208.52"/><rect class="cls-5" x="17.09" y="32.19" width="71.41" height="200.61"/><rect class="cls-6" x="88.5" y="32.19" width="73.42" height="200.61"/><path class="cls-7" d="M90.55,21.33v5.93a7.65,7.65,0,0,0,7.64,7.65h18.34V21.33Z" transform="translate(-28.03 -3.11)"/><path class="cls-8" d="M116.53,21.33V34.91h20.35a7.65,7.65,0,0,0,7.64-7.65V21.33Z" transform="translate(-28.03 -3.11)"/><path class="cls-9" d="M83.83,27.26a7.23,7.23,0,0,0-7.23,7.23v.84a7.23,7.23,0,0,0,7.23,7.22h32.7V27.26Z" transform="translate(-28.03 -3.11)"/><path class="cls-10" d="M151.24,27.26H116.53V42.55h34.71a7.23,7.23,0,0,0,7.23-7.22v-.84A7.23,7.23,0,0,0,151.24,27.26Z" transform="translate(-28.03 -3.11)"/><path class="cls-11" d="M64.31,89.66H88.24V65.73H64.31ZM66.09,67.5H86.47V87.88H66.09Z" transform="translate(-28.03 -3.11)"/><rect class="cls-11" x="69.18" y="72.05" width="19.32" height="3.99"/><rect class="cls-12" x="88.5" y="72.05" width="54.22" height="3.99"/><path class="cls-11" d="M64.31,149.35H88.24V125.43H64.31Zm1.78-22.15H86.47v20.38H66.09Z" transform="translate(-28.03 -3.11)"/><rect class="cls-11" x="69.18" y="131.74" width="19.32" height="3.99"/><rect class="cls-12" x="88.5" y="131.74" width="54.22" height="3.99"/><path class="cls-11" d="M64.31,209.06H88.24V185.13H64.31Zm1.78-22.16H86.47v20.39H66.09Z" transform="translate(-28.03 -3.11)"/><rect class="cls-11" x="69.18" y="191.44" width="19.32" height="3.99"/><rect class="cls-12" x="88.5" y="191.44" width="54.22" height="3.99"/><path class="cls-11" d="M113.15,12a4.39,4.39,0,0,1,3.38-4.27V3.21A8.83,8.83,0,0,0,108.68,12H98.19a7.64,7.64,0,0,0-7.64,7.64v1.72h26v-5.1A4.38,4.38,0,0,1,113.15,12Z" transform="translate(-28.03 -3.11)"/><path class="cls-12" d="M144.52,19.61A7.64,7.64,0,0,0,136.88,12H126.39a8.86,8.86,0,0,0-8.86-8.86c-.34,0-.66.07-1,.1V7.7a4.22,4.22,0,0,1,1-.13,4.4,4.4,0,1,1,0,8.79,4.22,4.22,0,0,1-1-.13v5.1h28Z" transform="translate(-28.03 -3.11)"/><path class="cls-13" d="M138.07,178.17,150,165.41l-9.76-6.65-7.52,15.75Z" transform="translate(-28.03 -3.11)"/><polygon class="cls-13" points="192.66 28.74 202.81 13.85 215.7 33.53 208.37 44.29 192.66 28.74"/><path class="cls-14" d="M207.4,90.9,188.57,78.06q-1.84,2.86-3.61,5.68l18.48,12.59Z" transform="translate(-28.03 -3.11)"/><path class="cls-14" d="M180.59,90.7c-12.34,19.85-23.81,39.62-41.22,68.3l10.7,7.29c20.32-26.7,34.53-44.6,48.48-63.35Z" transform="translate(-28.03 -3.11)"/><path class="cls-14" d="M220.61,35.58c-.11-.11-2.76-2.78-7.75-1.15-5.53,1.81-11.66,8.13-18.2,18.75C181.19,74.26,163,99.68,162.8,99.94c0,0,11.19,1.5,14.65-11.69,5-7.29,27.35-37.66,27.57-38a9.14,9.14,0,0,1,3.56-2.8c1-.31,2.43-.44,3.87,2.13,1.18,2.12,2.38,2.25,3.18,2,3.18-1,4.8-12,5.22-15.29l.06-.43Z" transform="translate(-28.03 -3.11)"/><path class="cls-13" d="M203.44,96.33,185,83.74c-1.48,2.33-2.93,4.65-4.37,7l18,12.24C200.18,100.75,201.81,98.56,203.44,96.33Z" transform="translate(-28.03 -3.11)"/><path class="cls-14" d="M240,43.2,221,30.31c-13.42,18.83-23.5,33.76-32.47,47.75L207.4,90.9C217.14,77.42,227.35,62.58,240,43.2Z" transform="translate(-28.03 -3.11)"/><path class="cls-14" d="M132.7,174.51a22.35,22.35,0,0,0-1.6,3.77,21.85,21.85,0,0,0-1,5.86,28.09,28.09,0,0,0,8-6Z" transform="translate(-28.03 -3.11)"/><polygon class="cls-7" points="194.8 37.2 166.44 78.97 174.97 84.78 203.67 43.09 194.8 37.2"/></g></svg>