<svg id="Capa_1" data-name="Capa 1" xmlns="http://www.w3.org/2000/svg" viewBox="0 0 201.55 251.84"><defs><style>.cls-1{fill:#c49a6c;}.cls-2{fill:#b0875a;}.cls-3{fill:#6d6e71;}.cls-4{fill:#56585d;}.cls-5{fill:#fff;}.cls-6{fill:#e6e7e8;}.cls-7{fill:#bcbec0;}.cls-8{fill:#a2a7ac;}.cls-9{fill:#939598;}.cls-10{fill:#7b7e84;}.cls-11{fill:#808285;}.cls-12{fill:#686c71;}.cls-13{fill:#e91e63;}.cls-14{fill:#414042;}</style></defs><g id="_1" data-name="1"><path class="cls-1" d="M41.79,45.26A17.22,17.22,0,0,0,28.54,65.69l37.31,175a17.21,17.21,0,0,0,20.43,13.25l64-13.64L105.77,31.62Z" transform="translate(-28.16 -2.47)"/><path class="cls-2" d="M171.59,17.58l-65.82,14,44.49,208.66,65.82-14a17.22,17.22,0,0,0,13.25-20.43L192,30.84A17.23,17.23,0,0,0,171.59,17.58Z" transform="translate(-28.16 -2.47)"/><rect class="cls-3" x="58.46" y="42.88" width="69.69" height="194.71" transform="translate(-55.35 20.07) rotate(-12.04)"/><rect class="cls-4" x="126.6" y="28.15" width="71.56" height="194.71" transform="translate(-50.76 34.15) rotate(-12.04)"/><rect class="cls-5" x="61.46" y="46.37" width="66.68" height="187.32" transform="translate(-55.28 20.38) rotate(-12.04)"/><rect class="cls-6" x="126.65" y="32.27" width="68.56" height="187.32" transform="translate(-50.88 33.86) rotate(-12.04)"/><path class="cls-7" d="M81.43,33.78l1.15,5.41a7.14,7.14,0,0,0,8.47,5.5l16.75-3.57-2.65-12.4Z" transform="translate(-28.16 -2.47)"/><path class="cls-8" d="M105.15,28.72l2.65,12.4,18.58-4a7.15,7.15,0,0,0,5.49-8.48l-1.15-5.41Z" transform="translate(-28.16 -2.47)"/><path class="cls-9" d="M76.45,40.5a6.76,6.76,0,0,0-5.2,8l.17.77a6.75,6.75,0,0,0,8,5.19l29.87-6.37-3-14Z" transform="translate(-28.16 -2.47)"/><path class="cls-10" d="M138,27.37l-31.7,6.76,3,14L141,41.34a6.75,6.75,0,0,0,5.19-8l-.17-.77A6.75,6.75,0,0,0,138,27.37Z" transform="translate(-28.16 -2.47)"/><path class="cls-11" d="M70.77,101.28l21.85-4.65L88,74.77,66.11,79.43ZM68.08,80.71l18.61-4,4,18.61-18.61,4Z" transform="translate(-28.16 -2.47)"/><rect class="cls-11" x="98.18" y="79.72" width="18.04" height="3.72" transform="translate(-42.81 21.68) rotate(-12.04)"/><rect class="cls-12" x="115.47" y="72.56" width="50.63" height="3.72" transform="translate(-40.58 28.52) rotate(-12.04)"/><path class="cls-11" d="M82.4,155.8l21.85-4.66L99.59,129.3,77.74,134Zm-2.7-20.57,18.62-4,4,18.61-18.61,4Z" transform="translate(-28.16 -2.47)"/><rect class="cls-11" x="109.81" y="134.23" width="18.04" height="3.73" transform="translate(-53.93 25.3) rotate(-12.04)"/><rect class="cls-12" x="127.09" y="127.07" width="50.63" height="3.73" transform="translate(-51.7 32.15) rotate(-12.04)"/><path class="cls-11" d="M94,210.32l21.85-4.66-4.66-21.85-21.85,4.66Zm-2.69-20.58,18.61-4,4,18.62-18.61,4Z" transform="translate(-28.16 -2.47)"/><rect class="cls-11" x="121.43" y="188.75" width="18.04" height="3.72" transform="translate(-65.04 28.92) rotate(-12.04)"/><rect class="cls-12" x="138.72" y="181.59" width="50.63" height="3.72" transform="translate(-62.81 35.77) rotate(-12.04)"/><path class="cls-11" d="M100.24,20.83a4.1,4.1,0,0,1,2.26-4.56l-.87-4.09a8.24,8.24,0,0,0-5.47,9.52l-9.57,2a7.14,7.14,0,0,0-5.5,8.47l.34,1.57,23.72-5.06-1-4.66A4.08,4.08,0,0,1,100.24,20.83Z" transform="translate(-28.16 -2.47)"/><path class="cls-12" d="M130.38,21.7a7.13,7.13,0,0,0-8.47-5.49l-9.58,2a8.26,8.26,0,0,0-9.81-6.36,5.78,5.78,0,0,0-.89.29l.87,4.09a4.46,4.46,0,0,1,.89-.31,4.1,4.1,0,1,1,1.71,8,3.74,3.74,0,0,1-.94.08l1,4.66,25.57-5.45Z" transform="translate(-28.16 -2.47)"/><path class="cls-13" d="M155.36,167.75c1.58-2.62,4-6.71,8.39-14l-10.2-4.17c-2,8.23-3.09,12.87-3.8,15.84Z" transform="translate(-28.16 -2.47)"/><polygon class="cls-13" points="174.16 15.57 180.53 0 196.13 15.47 191.53 26.72 174.16 15.57"/><path class="cls-14" d="M201.68,74.55l-19.7-8q-1.11,3-2.19,5.89l19.34,7.9Q200.4,77.46,201.68,74.55Z" transform="translate(-28.16 -2.47)"/><path class="cls-14" d="M177.16,79.6c-7.4,20.52-14,40.81-24.34,70.39L164,154.56c13.36-28.33,22.84-47.45,31.94-67.29Z" transform="translate(-28.16 -2.47)"/><path class="cls-14" d="M203,21.47c-.13-.08-3.06-2-7.3.45-4.71,2.74-9.07,9.7-13,20.68-8.19,21.87-19.87,48.62-20,48.89,0,0,10.5-.8,11.1-13.52,3.14-7.63,17.64-39.72,17.79-40a8.26,8.26,0,0,1,2.7-3.25c.82-.48,2.13-.88,3.94,1.19,1.5,1.7,2.62,1.59,3.29,1.19,2.71-1.57,2.06-11.86,1.8-15l0-.39Z" transform="translate(-28.16 -2.47)"/><path class="cls-13" d="M199.13,80.29l-19.34-7.9c-.89,2.41-1.76,4.81-2.63,7.21L196,87.27C197,85,198.07,82.64,199.13,80.29Z" transform="translate(-28.16 -2.47)"/><path class="cls-14" d="M222.13,24.66l-19.79-8.09C193.75,36.38,187.46,52,182,66.5l19.7,8C208,60.35,214.39,44.82,222.13,24.66Z" transform="translate(-28.16 -2.47)"/><path class="cls-14" d="M149.75,165.45a20.06,20.06,0,0,0-.73,3.76,20.51,20.51,0,0,0,.2,5.55,26,26,0,0,0,6.14-7Z" transform="translate(-28.16 -2.47)"/><polygon class="cls-7" points="177.76 22.88 160 66.55 168.92 70.2 187.01 26.54 177.76 22.88"/></g></svg>